<svg width="200" height="200" viewBox="0 0 200 200" fill="none" xmlns="http://www.w3.org/2000/svg">
  <!-- Background -->
  <circle cx="100" cy="100" r="90" fill="#FDF2F8" stroke="#F9A8D4" stroke-width="2" stroke-dasharray="4 4"/>
  
  <!-- Baby bottle -->
  <g transform="translate(80, 60)">
    <path d="M25 10V5C25 2.23858 22.7614 0 20 0H15C12.2386 0 10 2.23858 10 5V10H0V120H35V10H25Z" fill="#E0F2FE"/>
    <path d="M10 10V5C10 2.23858 12.2386 0 15 0H20C22.7614 0 25 2.23858 25 5V10M10 10H25M10 10H0V120H35V10H25" stroke="#38BDF8" stroke-width="2"/>
    
    <!-- Bottle nipple -->
    <rect x="10" y="10" width="15" height="10" rx="5" fill="#F9A8D4" stroke="#F472B6" stroke-width="2"/>
    
    <!-- Bottle cap -->
    <rect x="10" y="0" width="15" height="10" rx="2" fill="#F472B6" stroke="#F472B6" stroke-width="1"/>
    
    <!-- Measurement marks -->
    <line x1="5" y1="30" x2="10" y2="30" stroke="#38BDF8" stroke-width="2"/>
    <line x1="5" y1="50" x2="10" y2="50" stroke="#38BDF8" stroke-width="2"/>
    <line x1="5" y1="70" x2="10" y2="70" stroke="#38BDF8" stroke-width="2"/>
    <line x1="5" y1="90" x2="10" y2="90" stroke="#38BDF8" stroke-width="2"/>
  </g>
  
  <!-- Baby rattle -->
  <g transform="translate(120, 120)">
    <circle cx="0" cy="0" r="20" fill="#FBCFE8" stroke="#F472B6" stroke-width="2"/>
    <circle cx="0" cy="0" r="15" fill="#F9A8D4" stroke="#F472B6" stroke-width="1" stroke-dasharray="2 2"/>
    <circle cx="0" cy="0" r="8" fill="#F472B6"/>
    <rect x="-2" y="20" width="4" height="25" rx="2" fill="#F472B6"/>
    <circle cx="0" cy="50" r="5" fill="#F472B6"/>
  </g>
  
  <!-- Teddy bear -->
  <g transform="translate(40, 110)">
    <!-- Body -->
    <ellipse cx="15" cy="30" rx="15" ry="20" fill="#F3E8FF" stroke="#C084FC" stroke-width="2"/>
    
    <!-- Head -->
    <circle cx="15" cy="10" r="15" fill="#F3E8FF" stroke="#C084FC" stroke-width="2"/>
    
    <!-- Ears -->
    <circle cx="5" cy="0" r="5" fill="#F3E8FF" stroke="#C084FC" stroke-width="2"/>
    <circle cx="25" cy="0" r="5" fill="#F3E8FF" stroke="#C084FC" stroke-width="2"/>
    
    <!-- Face -->
    <circle cx="10" cy="10" r="2" fill="#C084FC"/>
    <circle cx="20" cy="10" r="2" fill="#C084FC"/>
    <ellipse cx="15" cy="15" rx="3" ry="2" fill="#C084FC"/>
  </g>
  
  <!-- Text -->
  <text x="100" y="170" font-family="Arial" font-size="12" font-weight="bold" fill="#F472B6" text-anchor="middle">暂无订单数据</text>
</svg> 